<svg width="173" height="178" viewBox="0 0 173 178" fill="none" xmlns="http://www.w3.org/2000/svg">
    <path
        d="M120.606 12.0385C133.967 16.7913 128.138 37.0581 114.328 32.933C108.41 31.1653 105.988 22.5306 102.76 15.8945C96.1876 2.38455 84.2066 0.600081 78.8163 9.43784C67.7113 27.6457 103.762 50.3324 133.25 69.252C150.672 80.4302 166.072 88.7118 168.403 98.8452C171.755 113.415 150.827 115.435 147.419 103.777C145.316 96.5816 153.052 91.4613 157.283 87.277C165.354 79.2958 173.784 66.7653 158.987 61.0914C128.324 49.3336 118.748 164.199 100.16 173.277C90.7803 177.857 79.6398 162.291 89.8467 153.965C97.4429 147.768 104.57 156.083 109.531 159.108C113.832 161.73 131.627 165.944 134.3 155.194C143.985 116.249 29.6442 150.643 10.489 131.487C2.0915 123.09 15.2197 107.906 23.2699 114.718C36.0744 125.553 17.264 155.343 33.3986 159.108C44.6016 161.722 51.2489 150.566 50.0137 136.658C48.6422 121.216 35.6979 91.126 28.4184 66.2927C23.0722 48.0554 15.7542 36.3823 23.2699 29.5253C32.9022 20.737 48.2745 34.6216 38.8208 43.5148C30.6422 51.2086 5.10242 44.0529 4.02628 61.8985C3.2796 74.281 18.5715 78.2232 33.5299 69.7004C48.9543 60.9121 68.3667 43.5396 85.6318 32.1259C101.734 21.481 111.817 8.91244 120.606 12.0385Z"
        stroke="#A4ABBA" stroke-width="7px" stroke-linecap="round"/>
</svg>